<svg width="856" height="319" viewBox="0 0 856 319" fill="none" xmlns="http://www.w3.org/2000/svg">
<path d="M855.743 134.105C852.875 128.194 850.007 122.352 847.093 116.511C835.528 93.4929 822.977 71.1008 807.322 53.9937C791.245 36.3304 771.877 26.1078 751.709 27.7768C741.226 28.6809 730.884 32.5056 721.388 39.112C711.892 45.7879 703.571 55.4541 695.673 65.5375C687.729 75.6209 680.113 86.3302 671.463 95.0923C662.813 103.854 653.223 110.044 643.069 113.729C622.29 121.309 600.572 119.362 579.417 118.806C559.25 118.249 539.129 119.084 519.526 127.151C484.128 141.685 453.618 173.673 424.049 204.689C394.009 236.26 363.406 269.014 327.772 285.147C325.939 285.912 325.327 290.085 327.208 291.476C328.806 292.658 330.357 293.771 331.956 294.953C334.635 296.969 337.033 290.989 334.306 288.972C332.708 287.79 331.157 286.677 329.558 285.495C329.37 287.581 329.182 289.737 328.994 291.823C333.272 289.946 337.456 287.79 341.593 285.426C375.769 265.815 405.198 232.714 434.955 201.768C464.195 171.379 495.034 141.198 530.621 130.35C551.117 124.091 572.084 125.621 592.862 126.177C613.217 126.733 634.278 126.594 653.693 116.302C663.236 111.226 671.839 103.715 679.831 94.536C687.917 85.2175 695.344 74.7169 703.242 65.0507C711.516 55.0368 720.401 46.2051 730.555 40.9896C740.474 35.9131 751.004 33.8269 761.44 34.87C802.574 39.0424 829.605 92.1021 851.653 137.582C853.439 141.198 857.482 137.721 855.743 134.105Z" fill="white"/>
<path d="M857.906 83.8258C853.534 76.1763 848.88 68.8745 843.897 62.1291C802.857 6.42686 744.001 -13.1837 690.879 11.5033C663.331 24.2989 640.343 48.1514 620.082 78.1235C598.975 109.347 579.794 143.84 553.469 165.954C496.116 214.076 427.576 205.105 364.394 200.029C300.93 194.882 237.843 200.585 175.789 220.752C114.911 240.501 55.9604 272.977 1.14672 316.996C0.81763 317.274 1.09969 318.039 1.42878 317.761C8.15122 312.337 14.9206 307.121 21.7841 302.045C77.4911 260.877 137.194 231.531 198.448 214.841C229.334 206.426 260.596 201.28 291.951 199.403C324.623 197.525 357.107 200.307 389.732 202.949C448.918 207.678 513.839 208.304 564.751 156.496C588.303 132.504 606.073 98.7075 626.664 69.7786C648.335 39.3197 674.05 17.2752 703.337 7.40042C759.984 -11.6537 820.157 18.8051 857.53 84.4517C857.765 84.8689 858.188 84.2431 857.906 83.8258Z" fill="white" stroke="white"/>
</svg>
