<svg width="285" height="95" viewBox="0 0 285 95" fill="none" xmlns="http://www.w3.org/2000/svg">
<path d="M284.771 33.4118C283.23 31.5575 281.688 29.7249 280.121 27.8924C273.904 20.6714 267.155 13.6468 258.739 8.28012C250.095 2.73893 239.682 -0.467978 228.84 0.0555972C223.204 0.339201 217.644 1.53907 212.538 3.61156C207.433 5.70586 202.959 8.73824 198.713 11.9015C194.442 15.0648 190.348 18.4244 185.697 21.1732C181.047 23.922 175.891 25.8636 170.432 27.0198C159.261 29.3977 147.584 28.7869 136.211 28.6123C125.368 28.4378 114.551 28.6996 104.012 31.2302C84.9802 35.7897 68.5774 45.8249 52.68 55.5547C36.5299 65.4591 20.0765 75.7342 0.918811 80.7955C-0.0668742 81.0355 -0.395436 82.3444 0.615538 82.7807C1.47486 83.1516 2.30889 83.5006 3.1682 83.8715C4.60882 84.5042 5.89779 82.628 4.43191 81.9954C3.57259 81.6245 2.73856 81.2754 1.87925 80.9046C1.77815 81.559 1.67703 82.2353 1.57593 82.8898C3.87587 82.3008 6.12528 81.6245 8.34938 80.8828C26.7236 74.7307 42.5451 64.3465 58.5436 54.6385C74.264 45.105 90.8438 35.637 109.976 32.2338C120.996 30.2703 132.268 30.7503 143.439 30.9248C154.383 31.0993 165.705 31.0557 176.144 27.827C181.274 26.2344 185.899 23.8783 190.196 20.9987C194.543 18.0754 198.536 14.7812 202.782 11.7488C207.231 8.60736 212.007 5.83676 217.467 4.20058C222.799 2.60803 228.461 1.95356 234.072 2.2808C256.186 3.58975 270.719 20.2351 282.573 34.5026C283.533 35.637 285.706 34.5462 284.771 33.4118Z" fill="white"/>
<path d="M284.976 24.8356C283.859 22.5419 282.67 20.3524 281.396 18.3298C270.909 1.62727 255.868 -4.25302 242.294 3.14947C235.254 6.98625 229.379 14.1385 224.202 23.1258C218.808 32.4883 213.907 42.831 207.179 49.4619C192.523 63.8916 175.008 61.2017 158.863 59.6795C142.645 58.1364 126.523 59.8463 110.666 65.8934C95.1092 71.8154 80.0447 81.5533 66.0375 94.7527C65.9534 94.8361 66.0255 95.0654 66.1096 94.982C67.8274 93.3556 69.5573 91.7917 71.3112 90.2695C85.5467 77.925 100.803 69.1255 116.456 64.121C124.349 61.5979 132.338 60.0548 140.35 59.4918C148.7 58.9288 157.001 59.7629 165.338 60.5552C180.462 61.9732 197.052 62.1609 210.062 46.6261C216.081 39.4321 220.622 29.298 225.884 20.6235C231.422 11.4903 237.993 4.8802 245.477 1.91921C259.953 -3.79426 275.33 5.33895 284.88 25.0233C284.94 25.1484 285.048 24.9607 284.976 24.8356Z" fill="white"/>
</svg>
