<svg width="1270" height="340" viewBox="0 0 1270 340" fill="none" xmlns="http://www.w3.org/2000/svg">
<path d="M4.33807 106.505C8.58006 100.594 12.822 94.7528 17.1336 88.9113C34.2406 65.8933 52.808 43.5012 75.9651 26.3941C99.7481 8.73077 128.399 -1.49173 158.232 0.177251C173.74 1.08128 189.038 4.90603 203.086 11.5124C217.133 18.1883 229.442 27.8545 241.125 37.9379C252.877 48.0213 264.143 58.7306 276.938 67.4928C289.734 76.2549 303.92 82.444 318.941 86.1297C349.678 93.7097 381.806 91.7625 413.099 91.2062C442.932 90.6498 472.695 91.4843 501.694 99.5511C554.058 114.085 599.19 146.074 642.931 177.089C687.368 208.661 732.639 241.414 785.351 257.548C788.063 258.313 788.967 262.485 786.186 263.876C783.821 265.058 781.526 266.171 779.162 267.353C775.198 269.37 771.651 263.389 775.685 261.373C778.049 260.19 780.344 259.078 782.708 257.896C782.987 259.982 783.265 262.138 783.543 264.224C777.215 262.346 771.026 260.19 764.906 257.826C714.35 238.215 670.817 205.114 626.798 174.168C583.544 143.779 537.925 113.598 485.282 102.75C454.963 96.4913 423.947 98.0211 393.21 98.5775C363.099 99.1338 331.945 98.9947 303.225 88.7027C289.108 83.6262 276.382 76.1158 264.56 66.9364C252.599 57.6179 241.611 47.1173 229.928 37.4511C217.689 27.4372 204.546 18.6055 189.525 13.39C174.852 8.3135 159.275 6.22728 143.837 7.27039C82.9887 11.4428 43.0028 64.5025 10.3881 109.982C7.74556 113.598 1.76506 110.121 4.33807 106.505Z" fill="white"/>
<path d="M1.13854 105.285C7.60584 97.635 14.4904 90.3333 21.8617 83.5878C82.5709 27.8856 169.636 8.27508 248.217 32.9621C288.968 45.7576 322.974 69.6101 352.946 99.5822C384.169 130.806 412.542 165.298 451.485 187.412C536.325 235.535 637.715 226.564 731.178 221.487C825.058 216.341 918.382 222.044 1010.18 242.21C1100.23 261.96 1187.44 294.436 1268.52 338.455C1269.01 338.733 1268.59 339.498 1268.1 339.22C1258.16 333.796 1248.14 328.58 1237.99 323.504C1155.59 282.335 1067.27 252.989 976.657 236.299C930.969 227.885 884.724 222.739 838.341 220.861C790.01 218.984 741.957 221.765 693.696 224.408C606.144 229.137 510.108 229.763 434.795 177.955C399.955 153.963 373.669 120.166 343.21 91.2373C311.152 60.7784 273.113 38.734 229.789 28.8592C145.992 9.80499 56.9798 40.2639 1.69481 105.91C1.34711 106.328 0.721301 105.702 1.13854 105.285Z" fill="white" stroke="white"/>
</svg>
