<svg xmlns="http://www.w3.org/2000/svg" width="1320" height="88" viewBox="300 972 1320 88"><g data-name="Logos"><g data-name="Logo"><g data-name="Rectangle 97"><path d="M300 972h224v88H300v-88z" fill="#fff" fill-rule="evenodd"/><path d="M0 0h224v88h0H0h0V0h0z" stroke-linejoin="round" stroke-linecap="round" stroke="rgba(255,255,255,0.5 )" fill="transparent" transform="matrix(.99554 0 0 .98864 300.5 972.5)"/></g><g data-name="8"><g data-name="Page-1"><g data-name="3"><g data-name="8"><path d="M389.363 1021.225v-23.65h5.614c1.738 0 3.12.55 4.15 1.647.959 1.046 1.439 2.377 1.439 3.993v3.436c0 1.556-.545 2.887-1.634 3.994-1.09 1.106-2.407 1.66-3.955 1.66h-2.061v8.92h-3.553Zm7.15-13.05c.394-.402.59-.884.59-1.446v-3.449c0-.622-.183-1.121-.55-1.497-.368-.376-.862-.564-1.485-.564h-2.152v7.559h2.152c.57 0 1.053-.201 1.446-.603Zm6.008 13.05 4.006-23.65h4.914l3.955 23.65h-3.735l-.842-5.433h-3.721l-.87 5.433h-3.707Zm6.444-18.23-1.323 9.322h2.645l-1.322-9.322Zm10.836 18.23v-23.65h5.614c1.738 0 3.12.55 4.15 1.647.959 1.046 1.438 2.377 1.438 3.993v3.436c0 1.556-.544 2.887-1.633 3.994-1.09 1.106-2.407 1.66-3.955 1.66h-2.061v8.92H419.8Zm7.15-13.05c.394-.402.59-.884.59-1.446v-3.449c0-.622-.183-1.121-.55-1.497-.368-.376-.863-.564-1.485-.564h-2.152v7.559h2.152c.57 0 1.052-.201 1.446-.603Zm8.302 13.05v-23.65h10.14v3.566h-6.587v6.47h4.81v3.578h-4.81v6.47h6.587v3.566h-10.14Zm14 0v-23.65h5.615c1.988 0 3.444.55 4.37 1.647.82.96 1.23 2.29 1.23 3.993v3.436c0 1.677-.634 3.09-1.905 4.24l2.645 10.334h-3.85l-2.18-8.934a3.907 3.907 0 0 1-.323.013h-2.049v8.92h-3.552Zm7.151-13.05c.393-.402.59-.884.59-1.446v-3.449c0-1.374-.678-2.061-2.035-2.061h-2.153v7.559h2.153c.57 0 1.052-.201 1.445-.603Zm9.054 13.05v-3.54l6.574-16.544h-6.574v-3.566h10.398v3.566l-6.56 16.544h6.56v3.54h-10.398Z" fill="#a4a4a4" fill-rule="evenodd" data-name="paperz"/><path d="M388.793 1033.337v-5.719h.629v5.199h2.574v.52h-3.203Zm4.562-.134a1.868 1.868 0 0 1-.696-.747 2.287 2.287 0 0 1-.252-1.081c0-.403.083-.763.247-1.082.165-.319.395-.568.688-.746a1.887 1.887 0 0 1 1.002-.269c.352 0 .67.087.956.26.285.174.509.41.67.709.163.299.244.633.244 1.002 0 .106-.003.187-.008.243h-3.229a1.7 1.7 0 0 0 .394 1.031c.24.286.568.428.981.428.336 0 .614-.063.835-.189.22-.125.398-.3.532-.524l.453.302c-.184.29-.428.519-.73.684-.301.165-.66.247-1.073.247-.38 0-.718-.09-1.014-.268Zm1.878-3.099c-.218-.204-.514-.306-.889-.306-.363 0-.661.116-.893.348a1.592 1.592 0 0 0-.44.876h2.633c-.056-.408-.193-.714-.411-.918Zm2.524 3.099a1.869 1.869 0 0 1-.696-.747 2.305 2.305 0 0 1-.252-1.09c0-.402.083-.761.248-1.077.165-.316.394-.564.687-.742a1.887 1.887 0 0 1 1.002-.269 1.65 1.65 0 0 1 1.384.721v-.587h.57v3.925h-.57v-.579a1.75 1.75 0 0 1-.595.524 1.608 1.608 0 0 1-.772.189c-.374 0-.71-.09-1.006-.268Zm1.706-.453c.21-.134.373-.322.49-.562a1.83 1.83 0 0 0 .177-.813 1.83 1.83 0 0 0-.176-.814 1.301 1.301 0 0 0-1.207-.763c-.263 0-.498.067-.705.201-.207.135-.369.32-.486.558a1.803 1.803 0 0 0-.176.81c0 .307.058.58.176.821.117.24.28.428.486.562.207.134.442.201.704.201.269 0 .508-.067.717-.201Zm2.998.453a1.869 1.869 0 0 1-.696-.747 2.305 2.305 0 0 1-.251-1.09c0-.402.082-.761.247-1.077.165-.316.394-.564.688-.742a1.887 1.887 0 0 1 1.002-.269 1.65 1.65 0 0 1 1.383.721v-2.75h.57v6.088h-.57v-.579a1.75 1.75 0 0 1-.595.524 1.608 1.608 0 0 1-.772.189c-.374 0-.71-.09-1.006-.268Zm1.707-.453c.21-.134.373-.322.49-.562a1.83 1.83 0 0 0 .176-.813 1.83 1.83 0 0 0-.176-.814 1.301 1.301 0 0 0-1.207-.763c-.263 0-.498.067-.705.201-.207.135-.369.32-.486.558a1.803 1.803 0 0 0-.176.81c0 .307.058.58.176.821.117.24.28.428.486.562.207.134.442.201.705.201.268 0 .507-.067.717-.201Zm2.565-4.235a.452.452 0 0 1-.13-.327c0-.123.044-.228.13-.314a.438.438 0 0 1 .323-.13c.123 0 .23.043.319.13.09.086.134.194.134.323 0 .123-.045.229-.134.318a.435.435 0 0 1-.319.134.431.431 0 0 1-.323-.134Zm.038 4.822v-3.925h.57v3.925h-.57Zm1.937 0v-3.925h.57v.655c.135-.252.312-.446.533-.583.22-.137.476-.206.767-.206.274 0 .527.056.759.168.232.112.416.277.553.495.137.218.206.475.206.771v2.625h-.57v-2.373c0-.777-.347-1.166-1.04-1.166-.403 0-.704.143-.906.428-.201.285-.302.668-.302 1.149v1.962h-.57Zm4.797 1.677v-.52h1.626c.341 0 .62-.123.835-.369.215-.246.323-.559.323-.94v-.427a1.75 1.75 0 0 1-.596.524 1.608 1.608 0 0 1-.771.189c-.375 0-.71-.09-1.007-.268a1.869 1.869 0 0 1-.695-.747 2.305 2.305 0 0 1-.252-1.09c0-.402.082-.761.247-1.077.165-.316.394-.564.688-.742a1.887 1.887 0 0 1 1.002-.269 1.65 1.65 0 0 1 1.384.721v-.587h.57v3.774c0 .352-.073.666-.218.943-.146.277-.35.494-.612.65a1.72 1.72 0 0 1-.898.235h-1.626Zm2.117-2.264c.21-.134.373-.322.49-.562a1.83 1.83 0 0 0 .177-.813 1.83 1.83 0 0 0-.177-.814 1.301 1.301 0 0 0-1.207-.763c-.263 0-.498.067-.704.201-.207.135-.37.32-.487.558a1.803 1.803 0 0 0-.176.81c0 .307.059.58.176.821.118.24.28.428.487.562.206.134.441.201.704.201.268 0 .507-.067.717-.201Zm4.306.587v-5.719h1.912c.514 0 .925.157 1.232.47.308.313.462.746.462 1.3 0 .547-.161.978-.483 1.29-.321.314-.747.47-1.278.47h-1.216v2.189h-.63Zm2.683-3.023c.196-.21.294-.519.294-.927 0-.408-.098-.718-.294-.93-.196-.213-.48-.32-.855-.32h-1.2v2.491h1.2c.374 0 .66-.104.855-.314Zm2.365 2.889a1.869 1.869 0 0 1-.696-.747 2.305 2.305 0 0 1-.252-1.09c0-.402.083-.761.248-1.077.165-.316.394-.564.687-.742a1.887 1.887 0 0 1 1.002-.269 1.65 1.65 0 0 1 1.384.721v-.587h.57v3.925h-.57v-.579a1.75 1.75 0 0 1-.596.524 1.608 1.608 0 0 1-.771.189c-.375 0-.71-.09-1.006-.268Zm1.706-.453c.21-.134.373-.322.49-.562a1.83 1.83 0 0 0 .177-.813 1.83 1.83 0 0 0-.176-.814 1.301 1.301 0 0 0-1.207-.763c-.263 0-.498.067-.705.201-.207.135-.369.32-.486.558a1.803 1.803 0 0 0-.177.81c0 .307.06.58.177.821.117.24.28.428.486.562.207.134.442.201.704.201.269 0 .508-.067.717-.201Zm2.302 2.264v-5.602h.57v.579a1.75 1.75 0 0 1 .596-.524c.234-.126.491-.189.771-.189.375 0 .71.09 1.006.269.297.179.529.427.696.746.168.319.252.682.252 1.09 0 .403-.083.762-.248 1.078a1.855 1.855 0 0 1-.687.742 1.887 1.887 0 0 1-1.002.268 1.65 1.65 0 0 1-1.384-.721v2.264h-.57Zm2.658-2.264c.207-.134.37-.32.486-.558.118-.237.177-.507.177-.809 0-.307-.06-.581-.177-.822a1.367 1.367 0 0 0-.486-.562 1.266 1.266 0 0 0-.704-.2 1.301 1.301 0 0 0-1.208.762 1.83 1.83 0 0 0-.176.814c0 .301.059.573.176.813.118.24.281.428.49.562.21.134.45.201.718.201.263 0 .497-.067.704-.201Zm2.742.453a1.869 1.869 0 0 1-.696-.747 2.287 2.287 0 0 1-.251-1.081c0-.403.082-.763.247-1.082.165-.319.394-.568.688-.746a1.887 1.887 0 0 1 1.002-.269c.352 0 .67.087.956.26.285.174.508.41.67.709.163.299.244.633.244 1.002 0 .106-.003.187-.009.243h-3.228a1.7 1.7 0 0 0 .394 1.031c.24.286.567.428.981.428.335 0 .614-.063.834-.189.221-.125.399-.3.533-.524l.453.302c-.185.29-.428.519-.73.684-.302.165-.66.247-1.073.247-.38 0-.719-.09-1.015-.268Zm1.878-3.099c-.218-.204-.514-.306-.888-.306-.364 0-.661.116-.893.348a1.592 1.592 0 0 0-.44.876h2.632c-.056-.408-.192-.714-.41-.918Zm1.82 3.233v-3.925h.57v.789c.151-.291.343-.517.575-.68.232-.162.493-.243.784-.243.134 0 .262.02.385.059v.52a.886.886 0 0 0-.385-.084c-.24 0-.464.067-.671.201a1.428 1.428 0 0 0-.499.583 2.012 2.012 0 0 0-.189.901v1.879h-.57Zm5.732-.222c-.35-.238-.618-.579-.805-1.023-.188-.445-.281-.977-.281-1.598 0-.626.09-1.164.272-1.614.182-.45.442-.794.78-1.031.338-.238.74-.357 1.203-.357.475 0 .882.105 1.22.315.339.21.603.504.793.884l-.503.294c-.18-.33-.389-.566-.63-.709-.24-.142-.533-.214-.88-.214-.497 0-.887.214-1.17.642-.282.428-.423 1.022-.423 1.782 0 .497.064.928.193 1.291.128.364.313.642.553.834.24.193.52.29.839.29.397 0 .706-.088.926-.264.221-.176.427-.452.617-.826l.528.318c-.201.436-.468.769-.8.998-.333.23-.729.344-1.187.344-.481 0-.896-.119-1.245-.356Zm4.758.088a1.862 1.862 0 0 1-.696-.75 2.312 2.312 0 0 1-.251-1.087c0-.402.082-.761.247-1.077.165-.316.394-.564.688-.742a1.887 1.887 0 0 1 1.002-.269c.374 0 .71.09 1.006.269.296.178.528.427.696.746.168.319.251.68.251 1.082s-.082.763-.247 1.081a1.849 1.849 0 0 1-.688.747 1.887 1.887 0 0 1-1.002.268c-.374 0-.71-.09-1.006-.268Zm1.707-.453c.21-.134.373-.322.49-.562a1.83 1.83 0 0 0 .176-.813 1.83 1.83 0 0 0-.176-.814 1.301 1.301 0 0 0-1.208-.763c-.262 0-.497.067-.704.201-.207.135-.369.32-.486.558a1.803 1.803 0 0 0-.176.81c0 .307.059.58.176.821.117.24.28.428.486.562.207.134.442.201.705.201.268 0 .507-.067.717-.201Zm2.041.587v-3.925h.57v.613c.13-.24.293-.425.491-.554.199-.128.426-.193.684-.193.285 0 .533.077.746.23a1.2 1.2 0 0 1 .444.66c.123-.28.291-.498.503-.655a1.21 1.21 0 0 1 .738-.235c.364 0 .666.127.906.382.24.254.36.605.36 1.052v2.625h-.57v-2.373c0-.414-.078-.712-.234-.893a.77.77 0 0 0-.613-.273.832.832 0 0 0-.717.357c-.17.237-.27.56-.297.968v2.214h-.57v-2.373c0-.414-.079-.712-.235-.893a.77.77 0 0 0-.612-.273.837.837 0 0 0-.768.428c-.17.285-.255.668-.255 1.149v1.962h-.57Zm6.466 1.677v-5.602h.57v.579a1.75 1.75 0 0 1 .595-.524c.235-.126.492-.189.772-.189.374 0 .71.09 1.006.269.296.179.528.427.696.746.168.319.251.682.251 1.09 0 .403-.082.762-.247 1.078a1.855 1.855 0 0 1-.688.742 1.887 1.887 0 0 1-1.002.268 1.65 1.65 0 0 1-1.383-.721v2.264h-.57Zm2.658-2.264c.207-.134.369-.32.486-.558.117-.237.176-.507.176-.809 0-.307-.059-.581-.176-.822a1.367 1.367 0 0 0-.486-.562 1.266 1.266 0 0 0-.705-.2 1.301 1.301 0 0 0-1.207.762 1.83 1.83 0 0 0-.176.814c0 .301.058.573.176.813a1.301 1.301 0 0 0 1.207.763c.263 0 .498-.067.705-.201Zm2.742.453a1.869 1.869 0 0 1-.696-.747 2.305 2.305 0 0 1-.252-1.09c0-.402.083-.761.248-1.077.164-.316.394-.564.687-.742a1.887 1.887 0 0 1 1.002-.269 1.65 1.65 0 0 1 1.384.721v-.587h.57v3.925h-.57v-.579a1.75 1.75 0 0 1-.596.524 1.608 1.608 0 0 1-.771.189c-.375 0-.71-.09-1.006-.268Zm1.706-.453c.21-.134.373-.322.49-.562a1.83 1.83 0 0 0 .177-.813 1.83 1.83 0 0 0-.176-.814 1.301 1.301 0 0 0-1.207-.763c-.264 0-.498.067-.705.201-.207.135-.37.32-.487.558a1.803 1.803 0 0 0-.176.81c0 .307.06.58.176.821.118.24.28.428.487.562.207.134.441.201.704.201.269 0 .508-.067.717-.201Zm2.294.587v-3.925h.57v.655c.134-.252.311-.446.532-.583.221-.137.477-.206.767-.206.274 0 .527.056.76.168.231.112.416.277.553.495.137.218.205.475.205.771v2.625h-.57v-2.373c0-.777-.347-1.166-1.04-1.166-.402 0-.704.143-.905.428-.202.285-.302.668-.302 1.149v1.962h-.57Zm5.048 1.677.62-1.602-1.61-4h.595l1.3 3.254 1.25-3.254h.536l-2.121 5.602h-.57Z" fill="#a4a4a4" fill-rule="evenodd" data-name="LeadingPaperCompany"/><g data-name="icon"><path d="M369.032 1003.056v27.205c-2.153 1.325-4.716 2.418-7.547 3.134-2.339.593-4.636.873-6.784.873-2.07 0-4.002-.26-5.701-.753v-27.205h.003c.633.184 1.298.335 1.99.453.641.109 1.306.189 1.99.238a23.1 23.1 0 0 0 1.718.063c2.149 0 4.445-.281 6.784-.873 2.831-.718 5.394-1.809 7.547-3.135Zm-3.981 6.245c-.168.057-.337.113-.507.168h.507v-.168Z" fill="#a4a4a4" fill-rule="evenodd" data-name="Combined-Shape"/><path d="M376.486 997v30.047c-2.403 1.465-5.264 2.67-8.425 3.462-2.61.655-5.175.964-7.572.964-2.311 0-4.467-.287-6.364-.831v-30.047h.004c.706.203 1.448.37 2.221.5.716.12 1.458.208 2.222.263.625.046 1.265.069 1.917.069 2.398 0 4.962-.31 7.572-.964 3.161-.793 6.022-1.998 8.425-3.463Z" fill="#a4a4a4" fill-rule="evenodd" data-name="Combined-Shape"/></g></g></g></g></g></g><g data-name="Logo"><g data-name="Rectangle 98"><path d="M574 972h224v88H574v-88z" fill="#fff" fill-rule="evenodd"/><path d="M0 0h224v88h0H0h0V0h0z" stroke-linejoin="round" stroke-linecap="round" stroke="rgba(255,255,255,0.5 )" fill="transparent" transform="matrix(.99554 0 0 .98864 574.5 972.5)"/></g><g data-name="Logo 5"><g data-name="🖥-Landing-Pages"><g data-name="Logos"><g data-name="Logos-raw"><g data-name="Logo-5"><path d="M627 1028.888c1.015-.066 1.746-.211 2.195-.435.79-.409 1.186-1.153 1.186-2.234v-19.968c0-1.042-.376-1.767-1.127-2.175-.435-.237-1.186-.402-2.254-.494v-1.028h12.376c4.996 0 8.805 1.33 11.428 3.993 2.385 2.425 3.578 5.68 3.578 9.767 0 3.664-1.2 6.768-3.598 9.312-2.702 2.86-6.366 4.29-10.992 4.29H627v-1.028Zm9.925-2.709c.04.83.19 1.43.455 1.8.276.368.856.553 1.74.553 2.398 0 4.369-.844 5.91-2.53 1.543-1.7 2.314-4.956 2.314-9.767 0-2.86-.415-5.319-1.246-7.375-1.344-3.308-3.611-4.962-6.8-4.962-1.055 0-1.74.224-2.057.672-.21.29-.316.85-.316 1.68v19.93ZM656.596 1020.644c0-2.821.864-5.174 2.59-7.058 1.74-1.885 3.922-2.828 6.544-2.828 2.676 0 4.864.963 6.564 2.887 1.714 1.924 2.57 4.257 2.57 6.999 0 2.702-.843 5.028-2.53 6.979-1.687 1.937-3.888 2.906-6.604 2.906-2.636 0-4.817-.943-6.544-2.827-1.726-1.898-2.59-4.251-2.59-7.058Zm5.951 0c0 2.833.145 4.817.435 5.95.462 1.754 1.378 2.63 2.748 2.63 1.305 0 2.162-.672 2.57-2.017.41-1.344.613-3.532.613-6.563 0-3.019-.217-5.2-.652-6.544-.422-1.358-1.259-2.037-2.51-2.037-1.372 0-2.288.877-2.749 2.63-.303 1.173-.455 3.156-.455 5.95ZM676.683 1028.947c.778-.092 1.318-.277 1.621-.553.304-.277.468-.811.495-1.602l.04-1.186v-11.012c0-.844-.146-1.417-.436-1.72-.29-.303-.863-.508-1.72-.613v-.989h7.691v3.183c.857-1.12 1.707-2.01 2.55-2.669.844-.659 1.82-.988 2.926-.988.83 0 1.576.27 2.235.81.672.528 1.008 1.305 1.008 2.333 0 .791-.237 1.444-.712 1.958-.461.514-1.068.77-1.819.77-.857 0-1.601-.401-2.234-1.205-.62-.804-1.054-1.206-1.305-1.206-.54 0-1.087.336-1.64 1.008-.541.659-.811 1.608-.811 2.847v7.651c0 1.345.19 2.188.573 2.53.395.33 1.173.548 2.333.653v.969h-10.795v-.969ZM694.497 1028.947c.83-.066 1.423-.25 1.779-.553.369-.304.553-.936.553-1.898v-13.167h-2.332v-1.78h2.332v-1.502c0-1.885.297-3.434.89-4.646 1.12-2.267 3.19-3.401 6.208-3.401 1.608 0 2.966.369 4.073 1.107 1.12.725 1.68 1.687 1.68 2.887 0 .75-.237 1.357-.711 1.819-.462.46-1.081.691-1.859.691-.646 0-1.2-.21-1.66-.632-.462-.422-.693-.93-.693-1.522 0-.449.145-.917.435-1.404.303-.501.455-.804.455-.91 0-.33-.119-.54-.356-.632a2.11 2.11 0 0 0-.77-.139c-.66 0-1.167.191-1.523.574-.356.382-.534 1.206-.534 2.471v5.24h3.52v1.778h-3.52v12.436c0 1.397.198 2.254.593 2.57.409.317 1.305.52 2.689.613v.969h-11.25v-.969Z" fill="#a4a4a4" fill-rule="evenodd" data-name="Dorfus"/><path d="M715.71 1011.272v13.74c0 .818.1 1.418.297 1.8.343.672 1.021 1.008 2.036 1.008.646 0 1.279-.204 1.898-.613.356-.224.804-.6 1.345-1.127v-11.486c0-.844-.172-1.43-.514-1.76-.33-.342-1.002-.534-2.017-.573v-.989h8.066v14.571c0 .844.158 1.43.475 1.76.316.316.936.514 1.858.593v.93c-2.504.236-4.086.414-4.745.533-.646.105-1.687.382-3.123.83v-2.669c-.963.83-1.76 1.417-2.393 1.76-1.107.606-2.26.91-3.46.91-1.304 0-2.524-.416-3.657-1.246-1.12-.83-1.68-2.307-1.68-4.429v-10.221c0-.857-.139-1.417-.416-1.68-.276-.264-.81-.482-1.601-.653v-.989h7.631ZM730.993 1023.787h1.127c.395 1.938 1.133 3.308 2.214 4.112 1.08.791 2.188 1.187 3.322 1.187 1.04 0 1.805-.231 2.293-.692.488-.475.731-1.094.731-1.859 0-.725-.263-1.344-.79-1.858-.29-.277-.758-.574-1.404-.89l-3.005-1.463c-1.582-.778-2.715-1.621-3.4-2.53-.7-.91-1.049-1.984-1.049-3.223 0-1.569.547-2.92 1.641-4.053 1.094-1.147 2.623-1.72 4.587-1.72.857 0 1.766.145 2.728.435.963.277 1.562.415 1.8.415.33 0 .56-.066.692-.198.145-.145.263-.342.355-.593h.89v5.852h-1.028c-.382-1.37-1.008-2.471-1.878-3.301-.87-.83-1.885-1.246-3.045-1.246-.896 0-1.568.25-2.016.751-.435.501-.653 1.042-.653 1.621 0 .475.198.95.593 1.424.383.488 1.107.988 2.175 1.503l2.214 1.067c1.371.66 2.373 1.298 3.005 1.918 1.055 1.054 1.582 2.353 1.582 3.895 0 1.502-.547 2.906-1.64 4.21-1.082 1.292-2.71 1.938-4.884 1.938-.54 0-1.088-.059-1.641-.178-.54-.105-1.213-.296-2.017-.573l-.692-.237a4.556 4.556 0 0 0-.474-.158.938.938 0 0 0-.218-.02.788.788 0 0 0-.593.277c-.158.171-.342.468-.553.89h-.97v-6.703Z" fill="#a4a4a4" fill-rule="evenodd" data-name="Dorfus"/></g></g></g></g></g></g><g data-name="Logo"><g data-name="Rectangle 100"><path d="M1122 972h224v88h-224v-88z" fill="#fff" fill-rule="evenodd"/><path d="M0 0h224v88h0H0h0V0h0z" stroke-linejoin="round" stroke-linecap="round" stroke="rgba(255,255,255,0.5 )" fill="transparent" transform="matrix(.99554 0 0 .98864 1122.5 972.5)"/></g><g data-name="9"><g data-name="Page-1"><g data-name="2"><g data-name="9"><path d="m1203.527 1017.274 2.83-1.118c.594 1.886 2.306 3.004 4.857 3.004 2.306 0 3.808-.978 3.808-2.69 0-4.437-10.586-2.446-10.586-8.77 0-3.18 2.62-5.136 6.673-5.136 3.354 0 5.765 1.363 6.569 3.809l-2.83 1.118c-.594-1.642-1.922-2.411-3.774-2.411-2.131 0-3.354.943-3.354 2.446 0 1.896 2.255 2.462 4.69 3.176l.319.094c2.766.826 5.647 1.923 5.647 5.43 0 3.493-2.9 5.52-7.267 5.52-3.808 0-6.603-1.538-7.582-4.472Zm31.818 10.341v-9.293c-1.467 2.131-3.808 3.424-6.708 3.424-5.206 0-9.05-4.088-9.05-9.574 0-5.485 3.74-9.608 8.98-9.608 3.075 0 5.52 1.433 6.988 3.809v-3.424h2.76v24.666h-2.97Zm.105-15.443c0-4.087-2.655-6.987-6.464-6.987-3.703 0-6.463 2.97-6.463 6.987 0 3.984 2.76 6.953 6.463 6.953 3.844 0 6.464-2.865 6.464-6.953Zm6.417 2.132v-11.355h2.97v11.005c0 3.11 1.991 5.171 5.136 5.136 3.11 0 5.206-2.236 5.24-4.577v-11.564h2.97v18.412h-2.83v-2.62c-1.222 1.712-3.424 3.005-6.149 3.005-4.717 0-7.337-3.075-7.337-7.442Zm18.96-2.166c0-5.451 3.844-9.4 9.05-9.4 3.11 0 5.52 1.398 6.917 3.774v-3.563h2.76v18.412h-2.76v-3.528c-1.397 2.445-3.808 3.913-6.918 3.913-5.24 0-9.049-4.088-9.049-9.608Zm15.863 0c0-4.088-2.62-6.953-6.464-6.953-3.704 0-6.464 3.004-6.464 6.953 0 4.017 2.76 6.987 6.464 6.987 3.808 0 6.464-2.865 6.464-6.987Zm6.661 9.223v-18.412h2.795v2.69c1.188-1.712 3.285-3.075 5.87-3.075v2.76c-3.354.035-5.695 2.306-5.695 4.927v11.11h-2.97Zm8.409-9.189c0-5.345 4.088-9.643 9.294-9.643 5.555 0 9.084 4.368 9.084 9.224 0 .524-.035 1.153-.07 1.503h-15.303c.524 3.424 3.214 5.73 6.603 5.73 3.005 0 4.682-1.153 5.59-3.285l2.586 1.573c-1.363 2.62-3.913 4.507-8.28 4.507-5.66 0-9.504-4.123-9.504-9.609Zm9.399-7.057c-3.11 0-5.8 2.061-6.36 5.555h12.3c-.455-3.459-2.866-5.555-5.94-5.555Z" fill="#a4a4a4" fill-rule="evenodd" data-name="square"/><path d="M1245.738 1032.548a.92.92 0 0 1-.35-.183c-.2-.174-.365-.516-.496-1.023a7.852 7.852 0 0 0-.118-.41c-.112-.34-.263-.577-.453-.708s-.477-.197-.862-.197c-.082 0-.213.005-.393.013l-.028.004v1.994l.143.119.479.04v.344h-1.994v-.344l.475-.04.143-.12v-4.618l-.143-.118-.475-.05v-.335h2.137c.685 0 1.193.123 1.523.37.33.247.496.626.496 1.136 0 .363-.113.662-.34.895-.227.233-.565.4-1.015.497.21.058.386.132.528.224.142.091.254.205.336.342.092.15.171.37.237.66.066.291.117.485.156.58.084.23.2.386.348.469.147.083.394.125.74.125h.074v.32a4.52 4.52 0 0 1-.348.054 2.649 2.649 0 0 1-.303.019c-.193 0-.36-.02-.497-.06Zm-1.106-3.176c.237-.183.355-.476.355-.88 0-.418-.122-.72-.365-.909-.243-.188-.636-.282-1.179-.282h-.405v2.337a16.749 16.749 0 0 0 .462.009c.519 0 .896-.092 1.132-.275Zm2.423 2.672c-.345-.38-.518-.877-.518-1.488 0-.628.181-1.14.543-1.538.361-.397.826-.596 1.394-.596.464 0 .832.148 1.103.445.272.296.408.7.408 1.21 0 .068 0 .12-.002.155a.811.811 0 0 1-.01.102h-2.715v.095c0 .526.127.943.38 1.25.255.308.597.461 1.028.461.2 0 .406-.04.62-.119.215-.079.448-.202.699-.368v.463a3.103 3.103 0 0 1-.774.372 2.66 2.66 0 0 1-.807.127c-.554 0-1.003-.19-1.349-.571Zm2.18-2.193c0-.338-.074-.597-.223-.778-.148-.18-.365-.27-.649-.27a.948.948 0 0 0-.722.334 1.356 1.356 0 0 0-.342.845h1.937v-.13Zm1.475 2.453c-.195-.197-.292-.456-.292-.778 0-.358.146-.639.44-.843.293-.205.963-.433 2.008-.684v-.266c0-.353-.057-.597-.172-.733-.114-.137-.314-.205-.598-.205-.106 0-.211.01-.315.033a2.059 2.059 0 0 0-.323.098v.704h-.578c-.1 0-.17-.018-.206-.055-.037-.037-.056-.104-.056-.203 0-.273.158-.5.473-.68.315-.18.723-.27 1.222-.27.44 0 .76.096.958.287.2.191.3.498.3.921v2.432l.143.135.442.041v.303h-1.18l-.11-.487a3.81 3.81 0 0 1-.743.412 1.732 1.732 0 0 1-.633.133c-.324 0-.584-.099-.78-.295Zm1.569-.25c.17-.063.366-.157.587-.282v-1.478c-.701.193-1.162.37-1.382.532a.75.75 0 0 0-.33.634c0 .21.061.378.183.502a.653.653 0 0 0 .49.186c.13 0 .281-.031.452-.094Zm1.99.487v-.303l.496-.04.143-.136v-5.13h-.647v-.262l1.024-.299h.32v5.691l.15.135.48.041v.303h-1.966Zm4.183 0v-.344l.475-.04.143-.12v-4.618l-.143-.118-.475-.05v-.335h4.016v1.224h-.47l-.12-.713-.114-.126h-1.94v2.12h1.375l.119-.118.082-.61h.397v1.846h-.397l-.082-.606-.119-.127h-1.376v2.35h2.248l.119-.135.143-.847h.434v1.367h-4.315Zm5.135.031a2.465 2.465 0 0 1-.51-.133v-1.09h.402l.102.713c.117.069.235.12.354.152.119.033.238.049.358.049.238 0 .428-.062.572-.186a.616.616 0 0 0 .215-.49c0-.169-.05-.309-.148-.42-.098-.11-.333-.25-.704-.419-.42-.188-.706-.366-.858-.532a.885.885 0 0 1-.227-.619c0-.373.13-.663.389-.868.26-.204.625-.307 1.097-.307.188 0 .364.016.526.047.163.032.315.078.457.138v.95h-.414l-.065-.594a1.714 1.714 0 0 0-.32-.135 1.058 1.058 0 0 0-.303-.045c-.218 0-.389.053-.511.16a.56.56 0 0 0-.185.446c0 .155.05.288.148.397.098.109.286.23.565.364.043.022.11.053.2.094.317.145.546.276.688.393a.795.795 0 0 1 .238.31c.054.124.082.26.082.411 0 .393-.139.7-.416.923-.277.223-.661.334-1.153.334-.202 0-.395-.014-.579-.043Zm3.144-.188c-.13-.122-.195-.344-.195-.666v-2.706h-.528v-.262l.553-.242.36-.782h.311v.893h1.278v.393h-1.278v2.211c0 .363.05.607.152.73.1.125.282.187.544.187a2.506 2.506 0 0 0 .582-.07v.312c-.192.06-.38.105-.565.137a3.217 3.217 0 0 1-.537.047c-.322 0-.548-.06-.677-.182Zm2.234-.08c-.195-.197-.293-.456-.293-.778 0-.358.147-.639.44-.843.294-.205.963-.433 2.009-.684v-.266c0-.353-.058-.597-.172-.733-.115-.137-.314-.205-.598-.205-.107 0-.212.01-.315.033a2.059 2.059 0 0 0-.324.098v.704h-.577c-.101 0-.17-.018-.207-.055-.037-.037-.055-.104-.055-.203 0-.273.157-.5.473-.68.315-.18.722-.27 1.222-.27.44 0 .759.096.958.287.2.191.299.498.299.921v2.432l.143.135.442.041v.303h-1.179l-.11-.487a3.81 3.81 0 0 1-.743.412 1.732 1.732 0 0 1-.633.133c-.325 0-.585-.099-.78-.295Zm1.568-.25c.17-.063.367-.157.588-.282v-1.478c-.702.193-1.162.37-1.382.532a.75.75 0 0 0-.33.634c0 .21.06.378.182.502a.653.653 0 0 0 .49.186c.13 0 .282-.031.452-.094Zm2.69.33c-.13-.122-.195-.344-.195-.666v-2.706h-.529v-.262l.553-.242.36-.782h.312v.893H1275v.393h-1.277v2.211c0 .363.05.607.151.73.101.125.283.187.545.187a2.506 2.506 0 0 0 .581-.07v.312c-.191.06-.38.105-.565.137a3.217 3.217 0 0 1-.536.047c-.322 0-.548-.06-.678-.182Zm2.418-.34c-.346-.38-.518-.877-.518-1.488 0-.628.18-1.14.542-1.538.362-.397.827-.596 1.394-.596.465 0 .832.148 1.104.445.272.296.407.7.407 1.21 0 .068 0 .12-.002.155a.812.812 0 0 1-.01.102h-2.715v.095c0 .526.127.943.381 1.25.254.308.597.461 1.028.461.2 0 .406-.04.62-.119.214-.079.447-.202.698-.368v.463a3.103 3.103 0 0 1-.774.372 2.66 2.66 0 0 1-.806.127c-.554 0-1.004-.19-1.35-.571Zm2.18-2.193c0-.338-.074-.597-.223-.778-.149-.18-.365-.27-.65-.27a.948.948 0 0 0-.722.334 1.356 1.356 0 0 0-.342.845h1.937v-.13Zm4.07 2.723a3.055 3.055 0 0 1-.686-.2v-1.474h.495l.099.962.11.143c.123.063.264.11.422.143.158.033.33.05.516.05.39 0 .7-.091.927-.273a.89.89 0 0 0 .342-.735c0-.428-.401-.813-1.204-1.154a10.772 10.772 0 0 0-.2-.086c-.574-.249-.953-.48-1.139-.694-.185-.215-.278-.492-.278-.834 0-.48.177-.868.53-1.164.354-.297.823-.445 1.407-.445.234 0 .47.02.706.06.236.04.477.099.723.178v1.298h-.438l-.127-.799-.123-.139a1.287 1.287 0 0 0-.348-.133 1.839 1.839 0 0 0-.41-.043c-.35 0-.626.09-.83.272-.206.182-.308.428-.308.74 0 .226.072.414.215.562.143.15.463.329.96.539l.209.082c.489.19.84.393 1.056.606.123.12.215.258.277.413.061.156.092.325.092.508 0 .505-.198.912-.594 1.222-.396.31-.921.465-1.576.465-.292 0-.567-.023-.825-.07Zm4.052-.544c-.364-.39-.546-.894-.546-1.511 0-.617.18-1.12.542-1.511.362-.39.83-.586 1.402-.586.57 0 1.039.196 1.405.588.366.392.548.895.548 1.509 0 .614-.183 1.117-.55 1.509-.367.391-.835.587-1.403.587-.567 0-1.033-.195-1.398-.585Zm2.246-.246c.213-.314.32-.736.32-1.265 0-.524-.108-.945-.322-1.261-.214-.317-.496-.475-.846-.475-.349 0-.63.157-.841.473-.212.315-.317.736-.317 1.263 0 .527.106.948.319 1.263.213.315.493.473.84.473.351 0 .634-.157.847-.471Zm1.37.757v-.303l.496-.04.143-.136v-5.13h-.647v-.262l1.024-.299h.32v5.691l.15.135.48.041v.303h-1.966Zm2.958-.247c-.193-.22-.29-.537-.29-.952v-2.346h-.597v-.262l.975-.312h.319v2.776c0 .306.065.53.197.674.13.143.335.215.614.215.155 0 .313-.02.473-.062.16-.04.326-.103.501-.188v-2.841h-.598v-.262l.975-.312h.32v3.64l.15.135.394.041v.303h-1.24v-.47a3.57 3.57 0 0 1-.728.417c-.222.09-.433.135-.632.135-.363 0-.641-.11-.833-.33Zm4.318.09c-.13-.122-.194-.344-.194-.666v-2.706h-.529v-.262l.553-.242.36-.782h.312v.893h1.277v.393h-1.277v2.211c0 .363.05.607.151.73.101.125.283.187.545.187a2.506 2.506 0 0 0 .581-.07v.312c-.19.06-.38.105-.565.137a3.217 3.217 0 0 1-.536.047c-.322 0-.548-.06-.678-.182Zm2.538-4.952a.459.459 0 0 1-.142-.34.47.47 0 0 1 .142-.346.466.466 0 0 1 .341-.142c.137 0 .252.048.346.144.095.095.142.21.142.344a.459.459 0 0 1-.142.34.474.474 0 0 1-.346.139.47.47 0 0 1-.341-.14Zm-.654 5.11v-.304l.443-.04.143-.136v-3.034h-.586v-.262l.963-.299h.327v3.595l.144.135.45.041v.303h-1.884Zm2.63-.512c-.364-.39-.547-.894-.547-1.511 0-.617.181-1.12.543-1.511.362-.39.83-.586 1.402-.586.57 0 1.039.196 1.405.588.365.392.548.895.548 1.509 0 .614-.183 1.117-.55 1.509-.367.391-.835.587-1.403.587-.567 0-1.034-.195-1.398-.585Zm2.246-.246c.213-.314.32-.736.32-1.265 0-.524-.108-.945-.322-1.261-.214-.317-.496-.475-.846-.475s-.63.157-.841.473c-.212.315-.317.736-.317 1.263 0 .527.106.948.319 1.263.213.315.493.473.84.473.351 0 .634-.157.847-.471Zm1.387.757v-.303l.454-.04.144-.136v-3.034h-.598v-.262l.974-.299h.32v.459a6.22 6.22 0 0 1 .81-.391c.205-.075.385-.113.54-.113.367 0 .646.11.84.328.194.218.29.535.29.95v2.362l.144.135.45.041v.303h-1.834v-.303l.401-.04.144-.136v-2.219c0-.314-.065-.536-.195-.667s-.347-.197-.653-.197c-.134 0-.278.023-.434.068a2.831 2.831 0 0 0-.503.207v2.808l.143.135.401.041v.303h-1.838Z" fill="#a4a4a4" fill-rule="evenodd" data-name="RealEstateSolution"/><path d="M1158 999h34.939v34.939H1158V999Zm26.004 8.935-17.07-.002v17.072l-.006.005v.002h17.084l-.002-17.083Z" fill="#a4a4a4" fill-rule="evenodd" data-name="Icon"/></g></g></g></g></g><g data-name="Logo"><g data-name="Rectangle 99"><path d="M848 972h224v88H848v-88z" fill="#fff" fill-rule="evenodd"/><path d="M0 0h224v88h0H0h0V0h0z" stroke-linejoin="round" stroke-linecap="round" stroke="rgba(255,255,255,0.5 )" fill="transparent" transform="matrix(.99554 0 0 .98864 848.5 972.5)"/></g><g data-name="6"><g data-name="Page-1"><g data-name="5"><g data-name="6"><path d="M931.07 1020.494v-20.085h5.631l3.592 11.233.314 1.083.684 2.695.898-3.222 3.692-11.789h5.603v20.085h-3.735v-12.173c0-.276.002-.552.007-.827.005-.276.05-1.459.135-3.55a169.1 169.1 0 0 1-1.242 4.514l-.078.264c-.064.21-.123.4-.176.568l-3.621 11.204h-2.994l-3.62-11.204-1.526-5.346c.114 2.205.171 3.664.171 4.377v12.173h-3.735Zm24.451-.933c-.836-.813-1.254-1.956-1.254-3.429 0-1.596.52-2.813 1.56-3.649 1.041-.836 2.55-1.264 4.526-1.283l3.322-.057v-.784c0-1.007-.176-1.756-.528-2.245-.351-.49-.926-.734-1.724-.734-.742 0-1.286.168-1.633.506-.346.337-.563.895-.648 1.675l-4.177-.2c.257-1.501.943-2.64 2.06-3.414s2.64-1.162 4.569-1.162c1.948 0 3.45.48 4.504 1.44 1.055.96 1.583 2.324 1.583 4.091v5.617c0 .865.097 1.46.292 1.789.195.328.52.492.976.492.304 0 .599-.029.884-.086v2.167c-.238.057-.451.11-.641.157a6.05 6.05 0 0 1-.57.114 8.573 8.573 0 0 1-1.354.1c-1.008 0-1.752-.248-2.232-.742-.48-.494-.767-1.221-.862-2.18h-.086c-1.121 2.023-2.813 3.035-5.075 3.035-1.492 0-2.656-.406-3.492-1.218Zm6.493-2.089a3.494 3.494 0 0 0 1.219-1.418 4.315 4.315 0 0 0 .442-1.917v-.784l-2.053.028c-.931.038-1.592.14-1.981.307-.39.166-.687.42-.891.762-.205.342-.307.798-.307 1.369 0 .731.169 1.276.506 1.632.338.356.787.534 1.347.534.628 0 1.2-.17 1.718-.513Zm9.647 3.022v-11.803a51.957 51.957 0 0 0-.114-3.62h3.82c.029.17.067.69.114 1.56.048.87.072 1.447.072 1.732h.057c.39-1.083.736-1.846 1.04-2.288.304-.442.665-.77 1.084-.983.418-.214.94-.321 1.568-.321.513 0 .926.071 1.24.214v3.35c-.646-.143-1.217-.214-1.71-.214-.999 0-1.776.404-2.331 1.212-.556.807-.834 2.005-.834 3.592v7.57h-4.006Zm12.562-.705c-.637-.642-.955-1.613-.955-2.915v-9.095h-1.953v-2.709h2.152l1.255-3.62h2.509v3.62h2.922v2.709h-2.922v8.011c0 .75.142 1.305.427 1.66.285.357.727.535 1.326.535.314 0 .76-.066 1.34-.2v2.481c-.988.323-2.114.485-3.378.485-1.179 0-2.086-.32-2.723-.962Zm8.47-17.498v-2.951h4.006v2.95h-4.005Zm0 18.203v-15.424h4.006v15.424h-4.005Zm8.087 0v-11.974a46.864 46.864 0 0 0-.115-3.45h3.82c.03.18.067.663.115 1.447.047.784.071 1.324.071 1.618h.057c.542-1.178 1.221-2.034 2.039-2.566.817-.532 1.791-.798 2.922-.798 1.635 0 2.889.504 3.763 1.511.875 1.007 1.312 2.48 1.312 4.42v9.792h-3.992v-8.652c0-2.709-.917-4.063-2.75-4.063-.97 0-1.752.416-2.346 1.247-.594.832-.89 1.898-.89 3.2v8.268h-4.006Zm18.962-1.853c-1.368-1.425-2.053-3.383-2.053-5.873 0-2.48.685-4.43 2.053-5.852 1.368-1.42 3.283-2.13 5.745-2.13 2.518 0 4.44.686 5.766 2.06 1.326 1.372 1.989 3.347 1.989 5.922 0 2.5-.694 4.46-2.082 5.88-1.387 1.421-3.307 2.131-5.759 2.131-2.404 0-4.29-.712-5.659-2.138Zm9.309-5.873c0-1.834-.3-3.165-.899-3.991-.598-.827-1.468-1.24-2.608-1.24-2.433 0-3.65 1.743-3.65 5.231 0 1.72.297 3.03.891 3.927.594.898 1.452 1.347 2.573 1.347 2.462 0 3.693-1.758 3.693-5.274Z" fill="#a4a4a4" fill-rule="evenodd" data-name="Martino"/><path d="M968.896 1032.246c-.496-.55-.744-1.307-.744-2.27 0-.947.245-1.698.733-2.254.489-.556 1.12-.834 1.892-.834.499 0 .926.137 1.283.411.356.274.622.613.796 1.017l-.845.277c-.319-.573-.735-.86-1.249-.86-.488 0-.876.203-1.163.61-.286.406-.43.95-.43 1.633 0 .693.145 1.242.434 1.646.29.403.676.605 1.16.605.313 0 .591-.094.833-.284.242-.19.418-.421.527-.695l.883.276c-.075.18-.171.353-.288.52a3.052 3.052 0 0 1-.442.494 1.992 1.992 0 0 1-.654.388c-.26.098-.54.146-.845.146-.758 0-1.385-.275-1.88-.826Zm5.744.68a1.67 1.67 0 0 1-.576-.373 1.975 1.975 0 0 1-.367-.539 2.522 2.522 0 0 1-.202-.613 3.381 3.381 0 0 1-.056-.617c0-.643.17-1.186.509-1.63.339-.444.835-.666 1.488-.666.648 0 1.142.222 1.48.666.34.444.51.987.51 1.63 0 .2-.02.399-.057.598a2.63 2.63 0 0 1-.198.61 2.073 2.073 0 0 1-.36.546 1.615 1.615 0 0 1-.571.385c-.237.1-.505.15-.804.15a2.08 2.08 0 0 1-.796-.147Zm1.506-1.028c.205-.244.307-.615.307-1.114 0-.508-.102-.884-.307-1.125-.204-.242-.44-.363-.71-.363-.27 0-.507.12-.714.363-.207.241-.31.617-.31 1.125 0 .499.102.87.306 1.114.204.245.444.367.718.367.27 0 .506-.122.71-.367Zm2.14 1.04v-6.11h.941v6.11h-.942Zm3.002-.012a1.67 1.67 0 0 1-.576-.373 1.975 1.975 0 0 1-.367-.539 2.523 2.523 0 0 1-.202-.613 3.381 3.381 0 0 1-.056-.617c0-.643.17-1.186.509-1.63.339-.444.835-.666 1.488-.666.648 0 1.142.222 1.48.666.34.444.51.987.51 1.63 0 .2-.02.399-.057.598a2.63 2.63 0 0 1-.198.61 2.073 2.073 0 0 1-.36.546 1.615 1.615 0 0 1-.571.385c-.237.1-.505.15-.804.15a2.08 2.08 0 0 1-.796-.147Zm1.506-1.028c.205-.244.307-.615.307-1.114 0-.508-.102-.884-.307-1.125-.204-.242-.44-.363-.71-.363-.27 0-.507.12-.714.363-.207.241-.31.617-.31 1.125 0 .499.102.87.306 1.114.204.245.444.367.718.367.27 0 .506-.122.71-.367Zm2.057 1.04v-4.315h.912v.464c.095-.16.23-.3.408-.42.177-.119.387-.179.632-.179.229 0 .416.033.56.097v.86c-.189-.06-.376-.09-.56-.09-.324 0-.572.127-.744.378-.172.252-.258.587-.258 1.006v2.199h-.95Zm3.436-.142a1.905 1.905 0 0 1-.752-.756l.681-.396c.3.439.688.658 1.167.658.234 0 .42-.046.557-.138a.421.421 0 0 0 .037-.7 1.224 1.224 0 0 0-.355-.213 12.073 12.073 0 0 0-.658-.22c-.18-.06-.33-.119-.453-.176a2.426 2.426 0 0 1-.385-.232.947.947 0 0 1-.306-.366 1.182 1.182 0 0 1-.105-.512c0-.38.16-.683.479-.913.319-.23.715-.344 1.189-.344.354 0 .688.094 1.002.28.314.188.548.426.703.715l-.629.381c-.294-.404-.65-.605-1.069-.605-.23 0-.405.046-.527.138a.44.44 0 0 0-.022.695c.107.098.218.169.332.213a10.727 10.727 0 0 0 .606.21c.887.284 1.331.713 1.331 1.286 0 .354-.148.654-.445.901-.297.247-.717.37-1.26.37-.419 0-.791-.092-1.118-.276Zm6.386.13a1.67 1.67 0 0 1-.576-.373 1.975 1.975 0 0 1-.366-.539 2.523 2.523 0 0 1-.202-.613 3.381 3.381 0 0 1-.056-.617c0-.643.17-1.186.509-1.63.339-.444.835-.666 1.488-.666.648 0 1.141.222 1.48.666.34.444.509.987.509 1.63 0 .2-.019.399-.056.598a2.63 2.63 0 0 1-.198.61 2.073 2.073 0 0 1-.36.546 1.615 1.615 0 0 1-.571.385c-.237.1-.505.15-.804.15a2.08 2.08 0 0 1-.797-.147Zm1.507-1.028c.205-.244.307-.615.307-1.114 0-.508-.102-.884-.307-1.125-.204-.242-.441-.363-.71-.363-.27 0-.508.12-.714.363-.207.241-.31.617-.31 1.125 0 .499.101.87.306 1.114.204.245.444.367.718.367.269 0 .506-.122.71-.367Zm2.378 1.04v-3.508h-.658v-.807h.658v-.464c0-.443.111-.776.333-.998.222-.222.535-.333.938-.333h.68v.8h-.545c-.155 0-.268.048-.34.142-.073.095-.109.247-.109.457v.396h.898v.807h-.898v3.508h-.957Zm4.322 1.765v-.793h.135c.224 0 .408-.049.55-.146.142-.097.255-.265.34-.505l.142-.426-1.615-4.21h1.04l.74 2.22c.124.41.219.741.284.995h.03l.276-.994.68-2.221h1.033l-1.787 4.883c-.16.439-.366.748-.617.927-.252.18-.565.27-.939.27h-.292Zm5.157-1.777a1.67 1.67 0 0 1-.576-.373 1.975 1.975 0 0 1-.367-.539 2.522 2.522 0 0 1-.202-.613 3.38 3.38 0 0 1-.056-.617c0-.643.17-1.186.509-1.63.339-.444.835-.666 1.488-.666.648 0 1.142.222 1.48.666.34.444.51.987.51 1.63 0 .2-.02.399-.057.598a2.63 2.63 0 0 1-.198.61 2.073 2.073 0 0 1-.359.546 1.615 1.615 0 0 1-.572.385c-.237.1-.505.15-.804.15a2.08 2.08 0 0 1-.796-.147Zm1.506-1.028c.205-.244.307-.615.307-1.114 0-.508-.102-.884-.307-1.125-.204-.242-.44-.363-.71-.363-.27 0-.507.12-.714.363-.207.241-.31.617-.31 1.125 0 .499.102.87.306 1.114.205.245.444.367.718.367.27 0 .506-.122.71-.367Zm2.958 1.096a1.535 1.535 0 0 1-.46-.254c-.15-.118-.27-.293-.359-.528a2.342 2.342 0 0 1-.134-.837v-2.752h.95v2.632c0 .673.236 1.01.71 1.01.284 0 .506-.121.665-.363.16-.242.24-.53.24-.864v-2.415h.942v4.315h-.913v-.501h-.007c-.07.154-.203.299-.4.433-.197.135-.443.202-.737.202-.174 0-.34-.026-.497-.078Zm3.586-.056v-4.315h.912v.464c.095-.16.23-.3.408-.42.177-.119.387-.179.631-.179.23 0 .417.033.561.097v.86c-.19-.06-.376-.09-.56-.09-.325 0-.573.127-.745.378-.172.252-.258.587-.258 1.006v2.199h-.95Zm4.958 0v-6.11h.942v6.11h-.942Zm2.101-4.958v-1.04h1.017v1.04h-1.017Zm.045 4.958v-4.315h.935v4.315h-.935Zm2.378 0v-3.508h-.658v-.807h.658v-.464c0-.443.11-.776.333-.998.222-.222.534-.333.938-.333h.68v.8h-.545c-.155 0-.268.048-.34.142-.073.095-.109.247-.109.457v.396h.897v.807h-.897v3.508h-.957Zm2.793-.494c-.381-.419-.572-.98-.572-1.682 0-.693.19-1.246.572-1.657.381-.411.861-.617 1.44-.617a1.8 1.8 0 0 1 1.405.62c.37.415.554.953.554 1.616a3.2 3.2 0 0 1-.023.382h-2.99c0 .329.098.612.294.848.197.237.468.356.812.356.24 0 .45-.059.632-.176.182-.117.32-.268.415-.453l.792.27c-.14.319-.366.585-.68.8-.314.214-.705.321-1.174.321-.603 0-1.096-.21-1.477-.628Zm2.172-2.845c-.174-.232-.418-.348-.733-.348a.908.908 0 0 0-.751.355 1.341 1.341 0 0 0-.288.834h2.034c0-.329-.087-.61-.262-.841Z" fill="#a4a4a4" fill-rule="evenodd" data-name="Colorsofyourlife"/><g data-name="floors"><path d="M895.615 1002.83v29.781a.81.81 0 0 1-.386.694.765.765 0 0 1-.777.01l-7.049-4.025a.809.809 0 0 1-.403-.703v-29.783a.81.81 0 0 1 .386-.693.765.765 0 0 1 .777-.01l7.048 4.025a.809.809 0 0 1 .404.703ZM907.101 1002.83v29.782a.81.81 0 0 1-.386.694.765.765 0 0 1-.777.01l-7.048-4.025a.809.809 0 0 1-.404-.703v-29.783a.81.81 0 0 1 .386-.693.765.765 0 0 1 .777-.01l7.049 4.025a.809.809 0 0 1 .403.703ZM918.585 1002.83v29.782a.81.81 0 0 1-.385.694.765.765 0 0 1-.778.01l-7.048-4.025a.809.809 0 0 1-.403-.703v-29.783a.81.81 0 0 1 .386-.693.765.765 0 0 1 .777-.01l7.048 4.025a.809.809 0 0 1 .403.703Z" fill="#a4a4a4" fill-rule="evenodd" data-name="Path"/></g></g></g></g></g></g><g data-name="Logo"><g data-name="Rectangle 101"><path d="M1396 972h224v88h-224v-88z" fill="#fff" fill-rule="evenodd"/><path d="M0 0h224v88h0H0h0V0h0z" stroke-linejoin="round" stroke-linecap="round" stroke="rgba(255,255,255,0.5 )" fill="transparent" transform="matrix(.99554 0 0 .98864 1396.5 972.5)"/></g><g data-name="10"><g data-name="Page-1"><g data-name="1"><g data-name="10"><g data-name="Group-5"><path d="M1448.963 997.121v7.365L1428 1021.811v-7.365l20.963-17.325Z" fill="#a4a4a4" fill-rule="evenodd" data-name="Fill-1"/><path d="M1448.963 1011.563v7.365L1428 1036.253v-7.365l20.963-17.325Z" fill="#a4a4a4" fill-rule="evenodd" data-name="Fill-2"/><path d="M1458.282 997.121v7.365l-20.964 17.325v-7.365l20.964-17.325Z" fill="#a4a4a4" fill-rule="evenodd" data-name="Fill-3"/><path d="M1458.282 1011.563v7.365l-20.964 17.325v-7.365l20.964-17.325Z" fill="#a4a4a4" fill-rule="evenodd" data-name="Fill-4"/></g><path d="M1473.805 1018.826c-2.275-2.274-3.412-5.237-3.412-8.888 0-3.617 1.163-6.514 3.488-8.692 2.326-2.178 5.411-3.267 9.255-3.267 1.16 0 2.358.097 3.592.29 1.234.193 2.499.483 3.795.87v5.937h-2.559l-.665-3.702-.529-.631a6.84 6.84 0 0 0-1.399-.427 8.011 8.011 0 0 0-1.501-.136c-2.616 0-4.672.867-6.167 2.601-1.496 1.735-2.244 4.12-2.244 7.157 0 3.116.765 5.553 2.295 7.31 1.53 1.757 3.654 2.636 6.372 2.636.182 0 .438-.008.768-.026.33-.017.71-.042 1.143-.076v-7.131l-.546-.478-2.593-.17v-1.724h10.201v1.723l-2.03.17-.546.479v8.154a27.358 27.358 0 0 1-4.009 1.075c-1.296.239-2.57.358-3.821.358-3.651 0-6.614-1.137-8.888-3.412Zm22.54.845c-1.61-1.61-2.414-3.728-2.414-6.355 0-2.696.824-4.86 2.474-6.491 1.649-1.632 3.838-2.449 6.568-2.449 2.684 0 4.816.81 6.397 2.432 1.581 1.62 2.372 3.812 2.372 6.576 0 2.616-.825 4.72-2.474 6.312-1.65 1.593-3.839 2.389-6.568 2.389-2.627 0-4.746-.805-6.355-2.414Zm9.51-1.237c.717-1.206 1.076-2.923 1.076-5.152 0-2.218-.361-3.947-1.084-5.186-.722-1.24-1.726-1.86-3.01-1.86-1.275 0-2.27.608-2.986 1.825-.717 1.217-1.075 2.923-1.075 5.118 0 2.23.355 3.964 1.066 5.204.711 1.24 1.698 1.86 2.96 1.86 1.32 0 2.337-.603 3.054-1.809Zm12.484 3.378-3.872-.068v-22.741h-2.525v-1.365l5.186-1.638h1.672v9.98c.955-.534 1.848-.93 2.678-1.186a8.102 8.102 0 0 1 2.389-.383c2.013 0 3.662.739 4.947 2.217 1.285 1.479 1.928 3.384 1.928 5.716 0 2.024-.47 3.773-1.407 5.246-.939 1.472-2.306 2.613-4.103 3.42-.637.273-1.442.475-2.414.606-.973.13-2.147.196-3.523.196h-.956Zm6.236-3.489c.995-1.086 1.493-2.778 1.493-5.075 0-1.968-.438-3.478-1.314-4.53-.876-1.052-2.127-1.578-3.753-1.578-.296 0-.623.023-.981.068a17.6 17.6 0 0 0-1.22.205v12.505c.125.012.267.02.426.026.16.005.387.008.683.008 2.115 0 3.67-.543 4.666-1.629Zm9.77 1.348c-1.609-1.61-2.413-3.728-2.413-6.355 0-2.696.824-4.86 2.473-6.491 1.65-1.632 3.839-2.449 6.568-2.449 2.685 0 4.817.81 6.398 2.432 1.58 1.62 2.371 3.812 2.371 6.576 0 2.616-.824 4.72-2.473 6.312-1.65 1.593-3.839 2.389-6.569 2.389-2.627 0-4.745-.805-6.354-2.414Zm9.512-1.237c.716-1.206 1.074-2.923 1.074-5.152 0-2.218-.36-3.947-1.083-5.186-.722-1.24-1.726-1.86-3.011-1.86-1.274 0-2.269.608-2.986 1.825-.716 1.217-1.074 2.923-1.074 5.118 0 2.23.355 3.964 1.066 5.204.71 1.24 1.697 1.86 2.96 1.86 1.32 0 2.337-.603 3.054-1.809Zm6.853 3.378v-1.57l1.792-.136.494-.529v-12.061h-2.388v-1.4l5.033-1.637h1.689v2.064c1.33-.74 2.479-1.28 3.446-1.62.966-.342 1.808-.512 2.525-.512 1.592 0 2.78.477 3.565 1.433.785.955 1.177 2.41 1.177 4.367v9.366l.46.529 1.843.136v1.57h-8.547v-1.57l1.502-.136.477-.529v-8.36c0-1.296-.25-2.249-.75-2.857-.5-.608-1.297-.913-2.389-.913-.42 0-.907.051-1.458.154a20.76 20.76 0 0 0-1.852.443v11.533l.478.529 1.536.136v1.57h-8.633Zm21.577-.964c-.853-.847-1.28-1.936-1.28-3.267 0-1.638.626-2.9 1.877-3.787 1.25-.887 4.168-1.849 8.752-2.884v-1.04c0-1.263-.268-2.184-.802-2.764-.535-.58-1.376-.87-2.525-.87-.25 0-.512.017-.785.051-.273.034-.569.086-.887.154v3.275h-3.224c-.558 0-.964-.102-1.22-.307-.256-.205-.384-.529-.384-.972 0-1.092.734-2.042 2.2-2.85 1.468-.807 3.27-1.21 5.409-1.21 2.4 0 4.088.46 5.067 1.381.978.922 1.467 2.525 1.467 4.811v9.042l.46.495 1.86.17v1.536h-6.227l-.46-1.996c-1.183.807-2.258 1.393-3.225 1.757-.967.364-1.894.546-2.78.546-1.343 0-2.44-.424-3.293-1.271Zm7.43-1.672a11.85 11.85 0 0 0 1.867-.793v-5.698c-2.297.512-3.867 1.069-4.708 1.672-.842.602-1.263 1.421-1.263 2.456 0 .808.233 1.448.7 1.92.466.472 1.097.708 1.893.708.444 0 .947-.089 1.51-.265Z" fill="#a4a4a4" fill-rule="evenodd" data-name="Gobona"/><path d="M1471.988 1034.39v-.401l.664-.048.158-.138v-2.074l-1.95-3.415-.596-.096v-.391h2.273v.391l-.558.058-.1.11 1.5 2.689 1.642-2.613-.09-.138-.597-.106v-.391h1.996v.391l-.597.125-2.035 3.257v2.203l.158.138.664.048v.401h-2.532Zm3.875-.597c-.425-.455-.637-1.043-.637-1.763s.21-1.307.632-1.762c.422-.456.968-.683 1.637-.683.665 0 1.211.228 1.638.685.427.457.64 1.044.64 1.76 0 .717-.214 1.304-.642 1.76-.429.458-.974.686-1.636.686-.663 0-1.207-.228-1.632-.683Zm2.62-.287c.249-.366.373-.858.373-1.476 0-.611-.125-1.102-.375-1.47-.25-.37-.579-.555-.986-.555-.408 0-.735.184-.982.552-.247.367-.37.859-.37 1.473 0 .615.124 1.106.372 1.474.249.368.575.552.98.552.41 0 .74-.183.988-.55Zm2.614.595c-.224-.256-.336-.626-.336-1.11v-2.738h-.698v-.305l1.137-.363h.373v3.238c0 .357.076.619.229.786.153.167.392.25.716.25.182 0 .366-.023.552-.07.186-.049.381-.122.585-.22v-3.316h-.697v-.305l1.137-.363h.372v4.246l.177.158.459.048v.353h-1.448v-.55c-.305.22-.588.383-.848.488-.26.105-.505.158-.738.158-.423 0-.747-.129-.972-.385Zm4.243.29v-.354l.52-.048.168-.158v-3.54h-.688v-.305l1.137-.349h.373v.917a11.953 11.953 0 0 1 1.046-.946.42.42 0 0 1 .093-.019c.033-.003.084-.004.15-.004a1.372 1.372 0 0 1 .588.129v.84h-.31a.647.647 0 0 0-.223-.174.647.647 0 0 0-.279-.06.897.897 0 0 0-.494.175 2.91 2.91 0 0 0-.571.542v2.794l.167.158.683.048v.353h-2.36Zm7.153 0v-.402l.655-.048.167-.138v-5.527h-1.495l-.139.148-.138.907h-.535v-1.504h5.527v1.504h-.54l-.134-.907-.138-.148h-1.496v5.527l.163.138.659.048v.401h-2.556Zm3.453 0v-.354l.52-.048.168-.158v-3.54h-.688v-.305l1.137-.349h.372v.917a11.953 11.953 0 0 1 1.046-.946.42.42 0 0 1 .093-.019c.034-.003.084-.004.151-.004a1.372 1.372 0 0 1 .588.129v.84h-.311a.647.647 0 0 0-.222-.174.647.647 0 0 0-.28-.06.897.897 0 0 0-.494.175 2.91 2.91 0 0 0-.57.542v2.794l.166.158.684.048v.353h-2.36Zm4.405-.29c-.224-.256-.337-.626-.337-1.11v-2.738h-.697v-.305l1.137-.363h.372v3.238c0 .357.077.619.23.786.153.167.391.25.716.25.182 0 .366-.023.552-.07.186-.049.381-.122.585-.22v-3.316h-.697v-.305l1.137-.363h.372v4.246l.177.158.458.048v.353h-1.447v-.55c-.306.22-.588.383-.848.488-.26.105-.505.158-.738.158-.423 0-.747-.129-.972-.385Zm4.957.325a2.876 2.876 0 0 1-.595-.155V1033h.469l.119.831c.137.08.275.139.413.177.139.038.278.057.418.057.277 0 .5-.072.667-.217a.719.719 0 0 0 .25-.57.71.71 0 0 0-.172-.49c-.114-.13-.388-.293-.821-.49-.49-.22-.824-.427-1.001-.621a1.032 1.032 0 0 1-.265-.721c0-.437.151-.774.454-1.013.302-.239.729-.358 1.28-.358.22 0 .424.018.614.055.19.036.367.09.532.16v1.108h-.482l-.077-.693a2 2 0 0 0-.372-.158 1.235 1.235 0 0 0-.354-.052c-.254 0-.453.062-.597.186-.143.124-.215.298-.215.52 0 .182.058.337.172.464.115.128.335.27.66.425.05.026.128.063.233.11.37.17.637.322.803.459a.927.927 0 0 1 .277.36c.064.145.096.305.096.48 0 .46-.162.818-.485 1.078-.323.26-.772.389-1.345.389-.236 0-.46-.017-.676-.05Zm3.667-.22c-.15-.142-.226-.4-.226-.776v-3.158h-.617v-.305l.645-.282.42-.912h.364v1.04h1.49v.46h-1.49v2.579c0 .423.059.708.176.853.118.144.33.217.636.217a2.923 2.923 0 0 0 .678-.081v.363c-.223.07-.443.123-.66.16a3.753 3.753 0 0 1-.625.055c-.376 0-.64-.071-.79-.213Zm2.822-.396c-.403-.445-.604-1.023-.604-1.737 0-.732.211-1.33.633-1.793.422-.464.964-.695 1.626-.695.542 0 .971.172 1.288.518.317.345.475.816.475 1.411 0 .08 0 .14-.002.182a.947.947 0 0 1-.012.12h-3.167v.11c0 .614.148 1.1.444 1.459.296.358.696.537 1.199.537.232 0 .474-.046.724-.139a4.03 4.03 0 0 0 .814-.43v.54a3.62 3.62 0 0 1-.903.435 3.104 3.104 0 0 1-.94.148c-.647 0-1.172-.222-1.575-.666Zm2.544-2.558c0-.395-.087-.698-.26-.908-.174-.21-.426-.315-.758-.315-.324 0-.605.13-.843.39-.237.259-.37.587-.398.986h2.259v-.153Zm1.854 2.582c-.355-.429-.532-.977-.532-1.646 0-.777.233-1.407.7-1.89.466-.482 1.074-.723 1.822-.723.13 0 .27.01.416.029.146.019.297.046.453.08v-1.838h-.75v-.306l1.195-.349h.367v6.64l.168.158.468.048v.353h-1.448v-.506a2.935 2.935 0 0 1-.745.449 2.05 2.05 0 0 1-.76.143c-.547 0-.998-.214-1.354-.642Zm2.317-.058c.177-.055.358-.14.542-.255v-3.358a5.583 5.583 0 0 0-.48-.117 2.047 2.047 0 0 0-.38-.041c-.5 0-.903.185-1.21.554-.308.37-.461.857-.461 1.462 0 .563.133 1.01.399 1.342.265.331.621.497 1.067.497.172 0 .346-.028.523-.084Zm7.266.633a2.998 2.998 0 0 1-.765-.291 3.236 3.236 0 0 1-1.24-1.254 3.538 3.538 0 0 1-.45-1.76c0-1.02.31-1.84.933-2.463.623-.622 1.444-.934 2.463-.934.293 0 .6.028.924.084.323.056.66.14 1.01.25v1.505h-.544l-.148-.888-.13-.177a2.898 2.898 0 0 0-.549-.19 2.4 2.4 0 0 0-.544-.063c-.74 0-1.325.252-1.758.755-.433.503-.65 1.188-.65 2.054 0 .92.226 1.642.679 2.166.452.524 1.078.786 1.877.786a2.921 2.921 0 0 0 .85-.13l.153-.152.239-1.09h.525v1.549c-.321.111-.65.196-.984.255a5.691 5.691 0 0 1-.989.088c-.321 0-.622-.033-.902-.1Zm4.266-.308c-.224-.256-.336-.626-.336-1.11v-2.738h-.698v-.305l1.137-.363h.373v3.238c0 .357.076.619.229.786.153.167.392.25.716.25.182 0 .366-.023.552-.07.187-.049.382-.122.585-.22v-3.316h-.697v-.305l1.137-.363h.372v4.246l.177.158.459.048v.353h-1.448v-.55c-.305.22-.588.383-.848.488-.26.105-.505.158-.738.158-.423 0-.747-.129-.972-.385Zm4.243.29v-.354l.521-.048.167-.158v-3.54h-.688v-.305l1.137-.349h.373v.917a11.954 11.954 0 0 1 1.046-.946.42.42 0 0 1 .093-.019c.034-.003.084-.004.15-.004a1.372 1.372 0 0 1 .588.129v.84h-.31a.647.647 0 0 0-.223-.174.647.647 0 0 0-.279-.06.897.897 0 0 0-.494.175 2.91 2.91 0 0 0-.571.542v2.794l.167.158.683.048v.353h-2.36Zm3.41 0v-.354l.52-.048.168-.158v-3.54h-.688v-.305l1.137-.349h.372v.917a11.954 11.954 0 0 1 1.046-.946.42.42 0 0 1 .093-.019c.034-.003.084-.004.15-.004a1.372 1.372 0 0 1 .588.129v.84h-.31a.647.647 0 0 0-.222-.174.647.647 0 0 0-.28-.06.897.897 0 0 0-.494.175 2.91 2.91 0 0 0-.57.542v2.794l.166.158.683.048v.353h-2.36Zm4.224-5.962a.535.535 0 0 1-.165-.397c0-.16.055-.294.165-.404a.543.543 0 0 1 .398-.164c.16 0 .294.055.404.167.11.111.165.245.165.401a.535.535 0 0 1-.165.397.553.553 0 0 1-.404.162.547.547 0 0 1-.398-.162Zm-.762 5.961v-.353l.516-.048.167-.158v-3.54h-.683v-.305l1.122-.349h.382v4.194l.168.158.525.048v.353h-2.197Zm3.034-.58c-.403-.445-.604-1.023-.604-1.737 0-.732.21-1.33.633-1.793.422-.464.964-.695 1.626-.695.542 0 .97.172 1.288.518.316.345.475.816.475 1.411 0 .08-.001.14-.003.182a.946.946 0 0 1-.012.12h-3.167v.11c0 .614.149 1.1.445 1.459.296.358.696.537 1.199.537.232 0 .473-.046.723-.139a4.03 4.03 0 0 0 .815-.43v.54a3.62 3.62 0 0 1-.903.435 3.104 3.104 0 0 1-.941.148c-.646 0-1.171-.222-1.574-.666Zm2.544-2.558c0-.395-.087-.698-.26-.908-.174-.21-.427-.315-.758-.315-.325 0-.606.13-.843.39-.237.259-.37.587-.399.986h2.26v-.153Zm1.26 3.138v-.353l.52-.048.167-.158v-3.54h-.688v-.305l1.137-.349h.373v.917a11.954 11.954 0 0 1 1.046-.946.42.42 0 0 1 .093-.019c.034-.003.084-.004.15-.004a1.372 1.372 0 0 1 .588.129v.84h-.31a.647.647 0 0 0-.222-.174.647.647 0 0 0-.28-.06.897.897 0 0 0-.494.175 2.91 2.91 0 0 0-.571.542v2.794l.167.158.683.048v.353h-2.36Z" fill="#a4a4a4" fill-rule="evenodd" data-name="YourTrustedCurrier"/></g></g></g></g></g></g></svg>